<mxfile host="app.diagrams.net" agent="Mozilla/5.0 (X11; Linux x86_64; rv:129.0) Gecko/20100101 Firefox/129.0" version="24.7.14">
  <diagram name="Page-1" id="Gxrd3hz52ldbKFZxDJL6">
    <mxGraphModel grid="1" page="1" gridSize="10" guides="1" tooltips="1" connect="1" arrows="1" fold="1" pageScale="1" pageWidth="850" pageHeight="1100" math="0" shadow="0">
      <root>
        <mxCell id="0" />
        <mxCell id="1" parent="0" />
        <mxCell id="IQoudXfQe1JlrcyB3fGg-28" style="edgeStyle=orthogonalEdgeStyle;rounded=0;orthogonalLoop=1;jettySize=auto;html=1;exitX=0.5;exitY=1;exitDx=0;exitDy=0;entryX=0.5;entryY=0;entryDx=0;entryDy=0;endArrow=none;endFill=0;" edge="1" parent="1" source="IQoudXfQe1JlrcyB3fGg-1" target="IQoudXfQe1JlrcyB3fGg-15">
          <mxGeometry relative="1" as="geometry">
            <mxPoint x="180" y="240" as="sourcePoint" />
          </mxGeometry>
        </mxCell>
        <mxCell id="IQoudXfQe1JlrcyB3fGg-38" style="edgeStyle=orthogonalEdgeStyle;rounded=0;orthogonalLoop=1;jettySize=auto;html=1;exitX=0;exitY=0.5;exitDx=0;exitDy=0;entryX=0.5;entryY=0;entryDx=0;entryDy=0;endArrow=none;endFill=0;" edge="1" parent="1" source="IQoudXfQe1JlrcyB3fGg-1" target="IQoudXfQe1JlrcyB3fGg-37">
          <mxGeometry relative="1" as="geometry" />
        </mxCell>
        <mxCell id="IQoudXfQe1JlrcyB3fGg-46" style="edgeStyle=orthogonalEdgeStyle;rounded=0;orthogonalLoop=1;jettySize=auto;html=1;exitX=0;exitY=0.25;exitDx=0;exitDy=0;entryX=0.5;entryY=0;entryDx=0;entryDy=0;endArrow=none;endFill=0;" edge="1" parent="1" source="IQoudXfQe1JlrcyB3fGg-1" target="IQoudXfQe1JlrcyB3fGg-45">
          <mxGeometry relative="1" as="geometry" />
        </mxCell>
        <mxCell id="IQoudXfQe1JlrcyB3fGg-98" style="edgeStyle=orthogonalEdgeStyle;rounded=0;orthogonalLoop=1;jettySize=auto;html=1;exitX=1;exitY=0.5;exitDx=0;exitDy=0;endArrow=oval;endFill=1;" edge="1" parent="1" source="IQoudXfQe1JlrcyB3fGg-1" target="IQoudXfQe1JlrcyB3fGg-8">
          <mxGeometry relative="1" as="geometry" />
        </mxCell>
        <mxCell id="IQoudXfQe1JlrcyB3fGg-1" value="Alunos" style="rounded=0;whiteSpace=wrap;html=1;" vertex="1" parent="1">
          <mxGeometry x="40" y="200" width="120" height="40" as="geometry" />
        </mxCell>
        <mxCell id="IQoudXfQe1JlrcyB3fGg-49" style="edgeStyle=orthogonalEdgeStyle;rounded=0;orthogonalLoop=1;jettySize=auto;html=1;exitX=0.5;exitY=1;exitDx=0;exitDy=0;entryX=0.5;entryY=1;entryDx=0;entryDy=0;endArrow=none;endFill=0;" edge="1" parent="1" source="IQoudXfQe1JlrcyB3fGg-2" target="IQoudXfQe1JlrcyB3fGg-48">
          <mxGeometry relative="1" as="geometry" />
        </mxCell>
        <mxCell id="IQoudXfQe1JlrcyB3fGg-93" style="edgeStyle=orthogonalEdgeStyle;rounded=0;orthogonalLoop=1;jettySize=auto;html=1;exitX=1;exitY=0.5;exitDx=0;exitDy=0;endArrow=oval;endFill=1;" edge="1" parent="1" source="IQoudXfQe1JlrcyB3fGg-2" target="IQoudXfQe1JlrcyB3fGg-10">
          <mxGeometry relative="1" as="geometry" />
        </mxCell>
        <mxCell id="IQoudXfQe1JlrcyB3fGg-94" style="edgeStyle=orthogonalEdgeStyle;rounded=0;orthogonalLoop=1;jettySize=auto;html=1;exitX=1;exitY=0.5;exitDx=0;exitDy=0;endArrow=oval;endFill=0;" edge="1" parent="1" source="IQoudXfQe1JlrcyB3fGg-2" target="IQoudXfQe1JlrcyB3fGg-85">
          <mxGeometry relative="1" as="geometry" />
        </mxCell>
        <mxCell id="IQoudXfQe1JlrcyB3fGg-2" value="Coordenador" style="rounded=0;whiteSpace=wrap;html=1;" vertex="1" parent="1">
          <mxGeometry x="600" y="200" width="120" height="40" as="geometry" />
        </mxCell>
        <mxCell id="IQoudXfQe1JlrcyB3fGg-26" style="edgeStyle=orthogonalEdgeStyle;rounded=0;orthogonalLoop=1;jettySize=auto;html=1;exitX=0.5;exitY=1;exitDx=0;exitDy=0;entryX=0.5;entryY=0;entryDx=0;entryDy=0;endArrow=none;endFill=0;" edge="1" parent="1" source="IQoudXfQe1JlrcyB3fGg-3" target="IQoudXfQe1JlrcyB3fGg-24">
          <mxGeometry relative="1" as="geometry" />
        </mxCell>
        <mxCell id="IQoudXfQe1JlrcyB3fGg-95" style="edgeStyle=orthogonalEdgeStyle;rounded=0;orthogonalLoop=1;jettySize=auto;html=1;exitX=1;exitY=0.5;exitDx=0;exitDy=0;endArrow=oval;endFill=1;" edge="1" parent="1" source="IQoudXfQe1JlrcyB3fGg-3" target="IQoudXfQe1JlrcyB3fGg-9">
          <mxGeometry relative="1" as="geometry" />
        </mxCell>
        <mxCell id="IQoudXfQe1JlrcyB3fGg-96" style="edgeStyle=orthogonalEdgeStyle;rounded=0;orthogonalLoop=1;jettySize=auto;html=1;exitX=1;exitY=0.5;exitDx=0;exitDy=0;endArrow=oval;endFill=0;" edge="1" parent="1" source="IQoudXfQe1JlrcyB3fGg-3" target="IQoudXfQe1JlrcyB3fGg-68">
          <mxGeometry relative="1" as="geometry" />
        </mxCell>
        <mxCell id="IQoudXfQe1JlrcyB3fGg-97" style="edgeStyle=orthogonalEdgeStyle;rounded=0;orthogonalLoop=1;jettySize=auto;html=1;exitX=1;exitY=0.5;exitDx=0;exitDy=0;endArrow=oval;endFill=0;" edge="1" parent="1" source="IQoudXfQe1JlrcyB3fGg-3" target="IQoudXfQe1JlrcyB3fGg-69">
          <mxGeometry relative="1" as="geometry" />
        </mxCell>
        <mxCell id="IQoudXfQe1JlrcyB3fGg-3" value="Professores" style="rounded=0;whiteSpace=wrap;html=1;" vertex="1" parent="1">
          <mxGeometry x="320" y="200" width="120" height="40" as="geometry" />
        </mxCell>
        <mxCell id="IQoudXfQe1JlrcyB3fGg-86" style="edgeStyle=orthogonalEdgeStyle;rounded=0;orthogonalLoop=1;jettySize=auto;html=1;exitX=0.5;exitY=0;exitDx=0;exitDy=0;endArrow=oval;endFill=1;" edge="1" parent="1" source="IQoudXfQe1JlrcyB3fGg-4" target="IQoudXfQe1JlrcyB3fGg-6">
          <mxGeometry relative="1" as="geometry">
            <Array as="points">
              <mxPoint x="380" y="-95" />
            </Array>
          </mxGeometry>
        </mxCell>
        <mxCell id="IQoudXfQe1JlrcyB3fGg-87" style="edgeStyle=orthogonalEdgeStyle;rounded=0;orthogonalLoop=1;jettySize=auto;html=1;exitX=0.5;exitY=0;exitDx=0;exitDy=0;endArrow=oval;endFill=0;" edge="1" parent="1" source="IQoudXfQe1JlrcyB3fGg-4" target="IQoudXfQe1JlrcyB3fGg-7">
          <mxGeometry relative="1" as="geometry">
            <Array as="points">
              <mxPoint x="380" y="-75" />
            </Array>
          </mxGeometry>
        </mxCell>
        <mxCell id="IQoudXfQe1JlrcyB3fGg-88" style="edgeStyle=orthogonalEdgeStyle;rounded=0;orthogonalLoop=1;jettySize=auto;html=1;exitX=0.5;exitY=0;exitDx=0;exitDy=0;endArrow=oval;endFill=0;" edge="1" parent="1" source="IQoudXfQe1JlrcyB3fGg-4" target="IQoudXfQe1JlrcyB3fGg-32">
          <mxGeometry relative="1" as="geometry">
            <Array as="points">
              <mxPoint x="380" y="-55" />
            </Array>
          </mxGeometry>
        </mxCell>
        <mxCell id="IQoudXfQe1JlrcyB3fGg-89" style="edgeStyle=orthogonalEdgeStyle;rounded=0;orthogonalLoop=1;jettySize=auto;html=1;exitX=0.5;exitY=0;exitDx=0;exitDy=0;endArrow=oval;endFill=0;" edge="1" parent="1" source="IQoudXfQe1JlrcyB3fGg-4" target="IQoudXfQe1JlrcyB3fGg-33">
          <mxGeometry relative="1" as="geometry">
            <Array as="points">
              <mxPoint x="380" y="-35" />
            </Array>
          </mxGeometry>
        </mxCell>
        <mxCell id="IQoudXfQe1JlrcyB3fGg-90" style="edgeStyle=orthogonalEdgeStyle;rounded=0;orthogonalLoop=1;jettySize=auto;html=1;exitX=0.5;exitY=0;exitDx=0;exitDy=0;endArrow=oval;endFill=0;" edge="1" parent="1" source="IQoudXfQe1JlrcyB3fGg-4" target="IQoudXfQe1JlrcyB3fGg-34">
          <mxGeometry relative="1" as="geometry">
            <Array as="points">
              <mxPoint x="380" y="-15" />
            </Array>
          </mxGeometry>
        </mxCell>
        <mxCell id="IQoudXfQe1JlrcyB3fGg-91" style="edgeStyle=orthogonalEdgeStyle;rounded=0;orthogonalLoop=1;jettySize=auto;html=1;exitX=0.5;exitY=0;exitDx=0;exitDy=0;endArrow=oval;endFill=0;" edge="1" parent="1" source="IQoudXfQe1JlrcyB3fGg-4" target="IQoudXfQe1JlrcyB3fGg-35">
          <mxGeometry relative="1" as="geometry">
            <Array as="points">
              <mxPoint x="380" y="5" />
            </Array>
          </mxGeometry>
        </mxCell>
        <mxCell id="IQoudXfQe1JlrcyB3fGg-92" style="edgeStyle=orthogonalEdgeStyle;rounded=0;orthogonalLoop=1;jettySize=auto;html=1;exitX=0.5;exitY=0;exitDx=0;exitDy=0;endArrow=oval;endFill=0;" edge="1" parent="1" source="IQoudXfQe1JlrcyB3fGg-4" target="IQoudXfQe1JlrcyB3fGg-36">
          <mxGeometry relative="1" as="geometry">
            <Array as="points">
              <mxPoint x="380" y="25" />
            </Array>
          </mxGeometry>
        </mxCell>
        <mxCell id="IQMPfHwv8TW2arMJD17B-3" style="edgeStyle=orthogonalEdgeStyle;rounded=0;orthogonalLoop=1;jettySize=auto;html=1;exitX=0.5;exitY=1;exitDx=0;exitDy=0;entryX=1;entryY=0.5;entryDx=0;entryDy=0;endArrow=none;endFill=0;" edge="1" parent="1" source="IQoudXfQe1JlrcyB3fGg-4" target="IQMPfHwv8TW2arMJD17B-1">
          <mxGeometry relative="1" as="geometry" />
        </mxCell>
        <mxCell id="IQMPfHwv8TW2arMJD17B-4" style="edgeStyle=orthogonalEdgeStyle;rounded=0;orthogonalLoop=1;jettySize=auto;html=1;exitX=0.5;exitY=1;exitDx=0;exitDy=0;entryX=1;entryY=0.5;entryDx=0;entryDy=0;endArrow=none;endFill=0;" edge="1" parent="1" source="IQoudXfQe1JlrcyB3fGg-4" target="IQMPfHwv8TW2arMJD17B-2">
          <mxGeometry relative="1" as="geometry" />
        </mxCell>
        <mxCell id="IQoudXfQe1JlrcyB3fGg-4" value="Pessoa" style="rounded=0;whiteSpace=wrap;html=1;" vertex="1" parent="1">
          <mxGeometry x="320" y="40" width="120" height="40" as="geometry" />
        </mxCell>
        <mxCell id="IQoudXfQe1JlrcyB3fGg-25" style="edgeStyle=orthogonalEdgeStyle;rounded=0;orthogonalLoop=1;jettySize=auto;html=1;exitX=1;exitY=0.5;exitDx=0;exitDy=0;entryX=0.5;entryY=1;entryDx=0;entryDy=0;endArrow=none;endFill=0;" edge="1" parent="1" source="IQoudXfQe1JlrcyB3fGg-5" target="IQoudXfQe1JlrcyB3fGg-4">
          <mxGeometry relative="1" as="geometry" />
        </mxCell>
        <mxCell id="IQMPfHwv8TW2arMJD17B-6" style="edgeStyle=orthogonalEdgeStyle;rounded=0;orthogonalLoop=1;jettySize=auto;html=1;exitX=0;exitY=0.5;exitDx=0;exitDy=0;entryX=0.5;entryY=0;entryDx=0;entryDy=0;endArrow=none;endFill=0;" edge="1" parent="1" source="IQoudXfQe1JlrcyB3fGg-5" target="IQoudXfQe1JlrcyB3fGg-3">
          <mxGeometry relative="1" as="geometry" />
        </mxCell>
        <mxCell id="IQoudXfQe1JlrcyB3fGg-5" value="" style="triangle;whiteSpace=wrap;html=1;rotation=-90;" vertex="1" parent="1">
          <mxGeometry x="360" y="120" width="40" height="40" as="geometry" />
        </mxCell>
        <mxCell id="IQoudXfQe1JlrcyB3fGg-6" value="&lt;div align=&quot;left&quot;&gt;cpf&lt;/div&gt;" style="text;html=1;align=left;verticalAlign=middle;resizable=0;points=[];autosize=1;strokeColor=none;fillColor=none;" vertex="1" parent="1">
          <mxGeometry x="400" y="-110" width="40" height="30" as="geometry" />
        </mxCell>
        <mxCell id="IQoudXfQe1JlrcyB3fGg-7" value="nome" style="text;html=1;align=left;verticalAlign=middle;resizable=0;points=[];autosize=1;strokeColor=none;fillColor=none;" vertex="1" parent="1">
          <mxGeometry x="400" y="-90" width="60" height="30" as="geometry" />
        </mxCell>
        <mxCell id="IQoudXfQe1JlrcyB3fGg-8" value="&lt;div align=&quot;left&quot;&gt;codAluno&lt;/div&gt;" style="text;html=1;align=left;verticalAlign=middle;resizable=0;points=[];autosize=1;strokeColor=none;fillColor=none;" vertex="1" parent="1">
          <mxGeometry x="200" y="200" width="80" height="30" as="geometry" />
        </mxCell>
        <mxCell id="IQoudXfQe1JlrcyB3fGg-9" value="&lt;div align=&quot;left&quot;&gt;codProfessor&lt;/div&gt;" style="text;html=1;align=left;verticalAlign=middle;resizable=0;points=[];autosize=1;strokeColor=none;fillColor=none;" vertex="1" parent="1">
          <mxGeometry x="480" y="200" width="100" height="30" as="geometry" />
        </mxCell>
        <mxCell id="IQoudXfQe1JlrcyB3fGg-10" value="codCoordenador" style="text;html=1;align=left;verticalAlign=middle;resizable=0;points=[];autosize=1;strokeColor=none;fillColor=none;" vertex="1" parent="1">
          <mxGeometry x="760" y="200" width="120" height="30" as="geometry" />
        </mxCell>
        <mxCell id="IQoudXfQe1JlrcyB3fGg-110" style="edgeStyle=orthogonalEdgeStyle;rounded=0;orthogonalLoop=1;jettySize=auto;html=1;exitX=0.5;exitY=1;exitDx=0;exitDy=0;endArrow=oval;endFill=1;" edge="1" parent="1" source="IQoudXfQe1JlrcyB3fGg-11" target="IQoudXfQe1JlrcyB3fGg-74">
          <mxGeometry relative="1" as="geometry">
            <Array as="points">
              <mxPoint x="-220" y="415" />
            </Array>
          </mxGeometry>
        </mxCell>
        <mxCell id="IQoudXfQe1JlrcyB3fGg-111" style="edgeStyle=orthogonalEdgeStyle;rounded=0;orthogonalLoop=1;jettySize=auto;html=1;exitX=0.5;exitY=1;exitDx=0;exitDy=0;endArrow=oval;endFill=0;" edge="1" parent="1" source="IQoudXfQe1JlrcyB3fGg-11" target="IQoudXfQe1JlrcyB3fGg-75">
          <mxGeometry relative="1" as="geometry">
            <Array as="points">
              <mxPoint x="-220" y="435" />
            </Array>
          </mxGeometry>
        </mxCell>
        <mxCell id="IQoudXfQe1JlrcyB3fGg-112" style="edgeStyle=orthogonalEdgeStyle;rounded=0;orthogonalLoop=1;jettySize=auto;html=1;exitX=0.5;exitY=1;exitDx=0;exitDy=0;endArrow=oval;endFill=0;" edge="1" parent="1" source="IQoudXfQe1JlrcyB3fGg-11" target="IQoudXfQe1JlrcyB3fGg-76">
          <mxGeometry relative="1" as="geometry">
            <Array as="points">
              <mxPoint x="-220" y="455" />
            </Array>
          </mxGeometry>
        </mxCell>
        <mxCell id="IQoudXfQe1JlrcyB3fGg-113" style="edgeStyle=orthogonalEdgeStyle;rounded=0;orthogonalLoop=1;jettySize=auto;html=1;exitX=0.5;exitY=1;exitDx=0;exitDy=0;endArrow=oval;endFill=0;" edge="1" parent="1" source="IQoudXfQe1JlrcyB3fGg-11" target="IQoudXfQe1JlrcyB3fGg-81">
          <mxGeometry relative="1" as="geometry">
            <Array as="points">
              <mxPoint x="-220" y="475" />
            </Array>
          </mxGeometry>
        </mxCell>
        <mxCell id="IQoudXfQe1JlrcyB3fGg-11" value="Disciplina" style="rounded=0;whiteSpace=wrap;html=1;" vertex="1" parent="1">
          <mxGeometry x="-280" y="360" width="120" height="40" as="geometry" />
        </mxCell>
        <mxCell id="IQoudXfQe1JlrcyB3fGg-30" style="edgeStyle=orthogonalEdgeStyle;rounded=0;orthogonalLoop=1;jettySize=auto;html=1;exitX=0;exitY=0.5;exitDx=0;exitDy=0;entryX=1;entryY=0.5;entryDx=0;entryDy=0;endArrow=none;endFill=0;" edge="1" parent="1" source="IQoudXfQe1JlrcyB3fGg-12" target="IQoudXfQe1JlrcyB3fGg-20">
          <mxGeometry relative="1" as="geometry" />
        </mxCell>
        <mxCell id="IQoudXfQe1JlrcyB3fGg-102" style="edgeStyle=orthogonalEdgeStyle;rounded=0;orthogonalLoop=1;jettySize=auto;html=1;exitX=0.5;exitY=1;exitDx=0;exitDy=0;endArrow=oval;endFill=1;" edge="1" parent="1" source="IQoudXfQe1JlrcyB3fGg-12" target="IQoudXfQe1JlrcyB3fGg-70">
          <mxGeometry relative="1" as="geometry">
            <Array as="points">
              <mxPoint x="100" y="415" />
            </Array>
          </mxGeometry>
        </mxCell>
        <mxCell id="IQoudXfQe1JlrcyB3fGg-103" style="edgeStyle=orthogonalEdgeStyle;rounded=0;orthogonalLoop=1;jettySize=auto;html=1;exitX=0.5;exitY=1;exitDx=0;exitDy=0;endArrow=oval;endFill=0;" edge="1" parent="1" source="IQoudXfQe1JlrcyB3fGg-12" target="IQoudXfQe1JlrcyB3fGg-71">
          <mxGeometry relative="1" as="geometry">
            <Array as="points">
              <mxPoint x="100" y="435" />
            </Array>
          </mxGeometry>
        </mxCell>
        <mxCell id="IQoudXfQe1JlrcyB3fGg-104" style="edgeStyle=orthogonalEdgeStyle;rounded=0;orthogonalLoop=1;jettySize=auto;html=1;exitX=0.5;exitY=1;exitDx=0;exitDy=0;endArrow=oval;endFill=0;" edge="1" parent="1" source="IQoudXfQe1JlrcyB3fGg-12" target="IQoudXfQe1JlrcyB3fGg-72">
          <mxGeometry relative="1" as="geometry">
            <Array as="points">
              <mxPoint x="100" y="455" />
            </Array>
          </mxGeometry>
        </mxCell>
        <mxCell id="IQoudXfQe1JlrcyB3fGg-105" style="edgeStyle=orthogonalEdgeStyle;rounded=0;orthogonalLoop=1;jettySize=auto;html=1;exitX=0.5;exitY=1;exitDx=0;exitDy=0;endArrow=oval;endFill=0;" edge="1" parent="1" source="IQoudXfQe1JlrcyB3fGg-12" target="IQoudXfQe1JlrcyB3fGg-73">
          <mxGeometry relative="1" as="geometry">
            <Array as="points">
              <mxPoint x="100" y="475" />
            </Array>
          </mxGeometry>
        </mxCell>
        <mxCell id="IQoudXfQe1JlrcyB3fGg-12" value="Turma" style="rounded=0;whiteSpace=wrap;html=1;" vertex="1" parent="1">
          <mxGeometry x="40" y="360" width="120" height="40" as="geometry" />
        </mxCell>
        <mxCell id="IQoudXfQe1JlrcyB3fGg-29" style="edgeStyle=orthogonalEdgeStyle;rounded=0;orthogonalLoop=1;jettySize=auto;html=1;exitX=0.5;exitY=1;exitDx=0;exitDy=0;entryX=0.5;entryY=0;entryDx=0;entryDy=0;endArrow=none;endFill=0;" edge="1" parent="1" source="IQoudXfQe1JlrcyB3fGg-15" target="IQoudXfQe1JlrcyB3fGg-12">
          <mxGeometry relative="1" as="geometry">
            <mxPoint x="180" y="360" as="targetPoint" />
          </mxGeometry>
        </mxCell>
        <mxCell id="IQoudXfQe1JlrcyB3fGg-99" style="edgeStyle=orthogonalEdgeStyle;rounded=0;orthogonalLoop=1;jettySize=auto;html=1;exitX=1;exitY=0.5;exitDx=0;exitDy=0;endArrow=oval;endFill=1;" edge="1" parent="1" source="IQoudXfQe1JlrcyB3fGg-15" target="IQoudXfQe1JlrcyB3fGg-17">
          <mxGeometry relative="1" as="geometry" />
        </mxCell>
        <mxCell id="IQoudXfQe1JlrcyB3fGg-100" style="edgeStyle=orthogonalEdgeStyle;rounded=0;orthogonalLoop=1;jettySize=auto;html=1;exitX=1;exitY=0.5;exitDx=0;exitDy=0;endArrow=oval;endFill=0;" edge="1" parent="1" source="IQoudXfQe1JlrcyB3fGg-15" target="IQoudXfQe1JlrcyB3fGg-18">
          <mxGeometry relative="1" as="geometry" />
        </mxCell>
        <mxCell id="IQoudXfQe1JlrcyB3fGg-101" style="edgeStyle=orthogonalEdgeStyle;rounded=0;orthogonalLoop=1;jettySize=auto;html=1;exitX=1;exitY=0.5;exitDx=0;exitDy=0;endArrow=oval;endFill=0;" edge="1" parent="1" source="IQoudXfQe1JlrcyB3fGg-15" target="IQoudXfQe1JlrcyB3fGg-19">
          <mxGeometry relative="1" as="geometry" />
        </mxCell>
        <mxCell id="IQoudXfQe1JlrcyB3fGg-15" value="Relatorio" style="rhombus;whiteSpace=wrap;html=1;" vertex="1" parent="1">
          <mxGeometry x="40" y="280" width="120" height="40" as="geometry" />
        </mxCell>
        <mxCell id="IQoudXfQe1JlrcyB3fGg-17" value="&lt;div align=&quot;left&quot;&gt;codMatricula&lt;/div&gt;" style="text;html=1;align=left;verticalAlign=middle;resizable=0;points=[];autosize=1;strokeColor=none;fillColor=none;" vertex="1" parent="1">
          <mxGeometry x="200" y="280" width="100" height="30" as="geometry" />
        </mxCell>
        <mxCell id="IQoudXfQe1JlrcyB3fGg-18" value="notas" style="text;html=1;align=left;verticalAlign=middle;resizable=0;points=[];autosize=1;strokeColor=none;fillColor=none;" vertex="1" parent="1">
          <mxGeometry x="200" y="295" width="50" height="30" as="geometry" />
        </mxCell>
        <mxCell id="IQoudXfQe1JlrcyB3fGg-19" value="faltas" style="text;html=1;align=left;verticalAlign=middle;resizable=0;points=[];autosize=1;strokeColor=none;fillColor=none;" vertex="1" parent="1">
          <mxGeometry x="200" y="310" width="50" height="30" as="geometry" />
        </mxCell>
        <mxCell id="IQoudXfQe1JlrcyB3fGg-31" style="edgeStyle=orthogonalEdgeStyle;rounded=0;orthogonalLoop=1;jettySize=auto;html=1;exitX=0;exitY=0.5;exitDx=0;exitDy=0;entryX=1;entryY=0.5;entryDx=0;entryDy=0;endArrow=none;endFill=0;" edge="1" parent="1" source="IQoudXfQe1JlrcyB3fGg-20" target="IQoudXfQe1JlrcyB3fGg-11">
          <mxGeometry relative="1" as="geometry" />
        </mxCell>
        <mxCell id="IQoudXfQe1JlrcyB3fGg-20" value="Pertence" style="rhombus;whiteSpace=wrap;html=1;" vertex="1" parent="1">
          <mxGeometry x="-120" y="360" width="120" height="40" as="geometry" />
        </mxCell>
        <mxCell id="IQoudXfQe1JlrcyB3fGg-27" style="edgeStyle=orthogonalEdgeStyle;rounded=0;orthogonalLoop=1;jettySize=auto;html=1;exitX=0;exitY=0.5;exitDx=0;exitDy=0;entryX=1;entryY=0.5;entryDx=0;entryDy=0;endArrow=none;endFill=0;" edge="1" parent="1" source="IQoudXfQe1JlrcyB3fGg-24" target="IQoudXfQe1JlrcyB3fGg-12">
          <mxGeometry relative="1" as="geometry" />
        </mxCell>
        <mxCell id="IQoudXfQe1JlrcyB3fGg-24" value="Ministra" style="rhombus;whiteSpace=wrap;html=1;" vertex="1" parent="1">
          <mxGeometry x="320" y="360" width="120" height="40" as="geometry" />
        </mxCell>
        <mxCell id="IQoudXfQe1JlrcyB3fGg-32" value="sexo" style="text;html=1;align=left;verticalAlign=middle;resizable=0;points=[];autosize=1;strokeColor=none;fillColor=none;" vertex="1" parent="1">
          <mxGeometry x="400" y="-70" width="50" height="30" as="geometry" />
        </mxCell>
        <mxCell id="IQoudXfQe1JlrcyB3fGg-33" value="endereço" style="text;html=1;align=left;verticalAlign=middle;resizable=0;points=[];autosize=1;strokeColor=none;fillColor=none;" vertex="1" parent="1">
          <mxGeometry x="400" y="-50" width="80" height="30" as="geometry" />
        </mxCell>
        <mxCell id="IQoudXfQe1JlrcyB3fGg-34" value="email" style="text;html=1;align=left;verticalAlign=middle;resizable=0;points=[];autosize=1;strokeColor=none;fillColor=none;" vertex="1" parent="1">
          <mxGeometry x="400" y="-30" width="60" height="30" as="geometry" />
        </mxCell>
        <mxCell id="IQoudXfQe1JlrcyB3fGg-35" value="dataNascimento" style="text;html=1;align=left;verticalAlign=middle;resizable=0;points=[];autosize=1;strokeColor=none;fillColor=none;" vertex="1" parent="1">
          <mxGeometry x="400" y="-10" width="120" height="30" as="geometry" />
        </mxCell>
        <mxCell id="IQoudXfQe1JlrcyB3fGg-36" value="telefone" style="text;html=1;align=left;verticalAlign=middle;resizable=0;points=[];autosize=1;strokeColor=none;fillColor=none;" vertex="1" parent="1">
          <mxGeometry x="400" y="10" width="70" height="30" as="geometry" />
        </mxCell>
        <mxCell id="IQoudXfQe1JlrcyB3fGg-39" style="edgeStyle=orthogonalEdgeStyle;rounded=0;orthogonalLoop=1;jettySize=auto;html=1;exitX=0.5;exitY=1;exitDx=0;exitDy=0;entryX=0.5;entryY=0;entryDx=0;entryDy=0;endArrow=none;endFill=0;" edge="1" parent="1" source="IQoudXfQe1JlrcyB3fGg-37" target="IQoudXfQe1JlrcyB3fGg-11">
          <mxGeometry relative="1" as="geometry" />
        </mxCell>
        <mxCell id="IQoudXfQe1JlrcyB3fGg-106" style="edgeStyle=orthogonalEdgeStyle;rounded=0;orthogonalLoop=1;jettySize=auto;html=1;exitX=1;exitY=0.5;exitDx=0;exitDy=0;endArrow=oval;endFill=1;" edge="1" parent="1" source="IQoudXfQe1JlrcyB3fGg-37" target="IQoudXfQe1JlrcyB3fGg-77">
          <mxGeometry relative="1" as="geometry" />
        </mxCell>
        <mxCell id="IQoudXfQe1JlrcyB3fGg-107" style="edgeStyle=orthogonalEdgeStyle;rounded=0;orthogonalLoop=1;jettySize=auto;html=1;exitX=1;exitY=0.5;exitDx=0;exitDy=0;endArrow=oval;endFill=0;" edge="1" parent="1" source="IQoudXfQe1JlrcyB3fGg-37" target="IQoudXfQe1JlrcyB3fGg-78">
          <mxGeometry relative="1" as="geometry" />
        </mxCell>
        <mxCell id="IQoudXfQe1JlrcyB3fGg-108" style="edgeStyle=orthogonalEdgeStyle;rounded=0;orthogonalLoop=1;jettySize=auto;html=1;exitX=1;exitY=0.5;exitDx=0;exitDy=0;endArrow=oval;endFill=0;" edge="1" parent="1" source="IQoudXfQe1JlrcyB3fGg-37" target="IQoudXfQe1JlrcyB3fGg-79">
          <mxGeometry relative="1" as="geometry" />
        </mxCell>
        <mxCell id="IQoudXfQe1JlrcyB3fGg-37" value="Historico" style="rhombus;whiteSpace=wrap;html=1;" vertex="1" parent="1">
          <mxGeometry x="-280" y="280" width="120" height="40" as="geometry" />
        </mxCell>
        <mxCell id="IQoudXfQe1JlrcyB3fGg-115" style="edgeStyle=orthogonalEdgeStyle;rounded=0;orthogonalLoop=1;jettySize=auto;html=1;exitX=0;exitY=0.5;exitDx=0;exitDy=0;endArrow=oval;endFill=1;" edge="1" parent="1" source="IQoudXfQe1JlrcyB3fGg-40" target="IQoudXfQe1JlrcyB3fGg-80">
          <mxGeometry relative="1" as="geometry" />
        </mxCell>
        <mxCell id="IQoudXfQe1JlrcyB3fGg-116" style="edgeStyle=orthogonalEdgeStyle;rounded=0;orthogonalLoop=1;jettySize=auto;html=1;exitX=0;exitY=0.5;exitDx=0;exitDy=0;endArrow=oval;endFill=0;" edge="1" parent="1" source="IQoudXfQe1JlrcyB3fGg-40" target="IQoudXfQe1JlrcyB3fGg-82">
          <mxGeometry relative="1" as="geometry" />
        </mxCell>
        <mxCell id="IQoudXfQe1JlrcyB3fGg-117" style="edgeStyle=orthogonalEdgeStyle;rounded=0;orthogonalLoop=1;jettySize=auto;html=1;exitX=0;exitY=0.5;exitDx=0;exitDy=0;endArrow=oval;endFill=0;" edge="1" parent="1" source="IQoudXfQe1JlrcyB3fGg-40" target="IQoudXfQe1JlrcyB3fGg-83">
          <mxGeometry relative="1" as="geometry" />
        </mxCell>
        <mxCell id="IQoudXfQe1JlrcyB3fGg-118" style="edgeStyle=orthogonalEdgeStyle;rounded=0;orthogonalLoop=1;jettySize=auto;html=1;exitX=0;exitY=0.5;exitDx=0;exitDy=0;endArrow=oval;endFill=0;" edge="1" parent="1" source="IQoudXfQe1JlrcyB3fGg-40" target="IQoudXfQe1JlrcyB3fGg-84">
          <mxGeometry relative="1" as="geometry">
            <Array as="points">
              <mxPoint x="-620" y="380" />
              <mxPoint x="-620" y="435" />
            </Array>
          </mxGeometry>
        </mxCell>
        <mxCell id="IQoudXfQe1JlrcyB3fGg-40" value="Curso" style="rounded=0;whiteSpace=wrap;html=1;" vertex="1" parent="1">
          <mxGeometry x="-600" y="360" width="120" height="40" as="geometry" />
        </mxCell>
        <mxCell id="IQoudXfQe1JlrcyB3fGg-42" style="edgeStyle=orthogonalEdgeStyle;rounded=0;orthogonalLoop=1;jettySize=auto;html=1;exitX=1;exitY=0.5;exitDx=0;exitDy=0;entryX=0;entryY=0.5;entryDx=0;entryDy=0;endArrow=none;endFill=0;" edge="1" parent="1" source="IQoudXfQe1JlrcyB3fGg-41" target="IQoudXfQe1JlrcyB3fGg-11">
          <mxGeometry relative="1" as="geometry" />
        </mxCell>
        <mxCell id="IQoudXfQe1JlrcyB3fGg-43" style="edgeStyle=orthogonalEdgeStyle;rounded=0;orthogonalLoop=1;jettySize=auto;html=1;exitX=0;exitY=0.5;exitDx=0;exitDy=0;entryX=1;entryY=0.5;entryDx=0;entryDy=0;endArrow=none;endFill=0;" edge="1" parent="1" source="IQoudXfQe1JlrcyB3fGg-41" target="IQoudXfQe1JlrcyB3fGg-40">
          <mxGeometry relative="1" as="geometry" />
        </mxCell>
        <mxCell id="IQoudXfQe1JlrcyB3fGg-41" value="Pertence" style="rhombus;whiteSpace=wrap;html=1;" vertex="1" parent="1">
          <mxGeometry x="-440" y="360" width="120" height="40" as="geometry" />
        </mxCell>
        <mxCell id="IQoudXfQe1JlrcyB3fGg-47" style="edgeStyle=orthogonalEdgeStyle;rounded=0;orthogonalLoop=1;jettySize=auto;html=1;exitX=0.5;exitY=1;exitDx=0;exitDy=0;entryX=0.5;entryY=0;entryDx=0;entryDy=0;endArrow=none;endFill=0;" edge="1" parent="1" source="IQoudXfQe1JlrcyB3fGg-45" target="IQoudXfQe1JlrcyB3fGg-40">
          <mxGeometry relative="1" as="geometry" />
        </mxCell>
        <mxCell id="IQoudXfQe1JlrcyB3fGg-45" value="Matricula" style="rhombus;whiteSpace=wrap;html=1;" vertex="1" parent="1">
          <mxGeometry x="-600" y="275" width="120" height="40" as="geometry" />
        </mxCell>
        <mxCell id="IQoudXfQe1JlrcyB3fGg-50" style="edgeStyle=orthogonalEdgeStyle;rounded=0;orthogonalLoop=1;jettySize=auto;html=1;exitX=0.5;exitY=0;exitDx=0;exitDy=0;entryX=0.5;entryY=1;entryDx=0;entryDy=0;endArrow=none;endFill=0;" edge="1" parent="1" source="IQoudXfQe1JlrcyB3fGg-48" target="IQoudXfQe1JlrcyB3fGg-40">
          <mxGeometry relative="1" as="geometry" />
        </mxCell>
        <mxCell id="IQoudXfQe1JlrcyB3fGg-48" value="Coordena" style="rhombus;whiteSpace=wrap;html=1;" vertex="1" parent="1">
          <mxGeometry x="-600" y="440" width="120" height="40" as="geometry" />
        </mxCell>
        <mxCell id="IQoudXfQe1JlrcyB3fGg-51" value="(0,n)" style="text;html=1;align=left;verticalAlign=middle;resizable=0;points=[];autosize=1;strokeColor=none;fillColor=none;" vertex="1" parent="1">
          <mxGeometry x="160" y="350" width="50" height="30" as="geometry" />
        </mxCell>
        <mxCell id="IQoudXfQe1JlrcyB3fGg-52" value="(1,1)" style="text;html=1;align=left;verticalAlign=middle;resizable=0;points=[];autosize=1;strokeColor=none;fillColor=none;" vertex="1" parent="1">
          <mxGeometry x="380" y="240" width="50" height="30" as="geometry" />
        </mxCell>
        <mxCell id="IQoudXfQe1JlrcyB3fGg-53" value="(0,n)" style="text;html=1;align=left;verticalAlign=middle;resizable=0;points=[];autosize=1;strokeColor=none;fillColor=none;" vertex="1" parent="1">
          <mxGeometry x="100" y="330" width="50" height="30" as="geometry" />
        </mxCell>
        <mxCell id="IQoudXfQe1JlrcyB3fGg-54" value="(0,n)" style="text;html=1;align=left;verticalAlign=middle;resizable=0;points=[];autosize=1;strokeColor=none;fillColor=none;" vertex="1" parent="1">
          <mxGeometry x="100" y="240" width="50" height="30" as="geometry" />
        </mxCell>
        <mxCell id="IQoudXfQe1JlrcyB3fGg-57" value="&lt;div align=&quot;right&quot;&gt;(0,n)&lt;/div&gt;" style="text;html=1;align=right;verticalAlign=middle;resizable=0;points=[];autosize=1;strokeColor=none;fillColor=none;" vertex="1" parent="1">
          <mxGeometry x="-10" y="220" width="50" height="30" as="geometry" />
        </mxCell>
        <mxCell id="IQoudXfQe1JlrcyB3fGg-58" value="(0,n)" style="text;html=1;align=left;verticalAlign=middle;resizable=0;points=[];autosize=1;strokeColor=none;fillColor=none;" vertex="1" parent="1">
          <mxGeometry x="-220" y="330" width="50" height="30" as="geometry" />
        </mxCell>
        <mxCell id="IQoudXfQe1JlrcyB3fGg-59" value="&lt;div align=&quot;right&quot;&gt;(0,n)&lt;/div&gt;" style="text;html=1;align=right;verticalAlign=middle;resizable=0;points=[];autosize=1;strokeColor=none;fillColor=none;" vertex="1" parent="1">
          <mxGeometry x="-330" y="380" width="50" height="30" as="geometry" />
        </mxCell>
        <mxCell id="IQoudXfQe1JlrcyB3fGg-60" value="(1,n)" style="text;html=1;align=left;verticalAlign=middle;resizable=0;points=[];autosize=1;strokeColor=none;fillColor=none;" vertex="1" parent="1">
          <mxGeometry x="-480" y="380" width="50" height="30" as="geometry" />
        </mxCell>
        <mxCell id="IQoudXfQe1JlrcyB3fGg-61" value="&lt;div align=&quot;left&quot;&gt;(1,1)&lt;/div&gt;" style="text;html=1;align=left;verticalAlign=middle;resizable=0;points=[];autosize=1;strokeColor=none;fillColor=none;" vertex="1" parent="1">
          <mxGeometry x="-160" y="380" width="50" height="30" as="geometry" />
        </mxCell>
        <mxCell id="IQoudXfQe1JlrcyB3fGg-62" value="&lt;div align=&quot;right&quot;&gt;(0,n)&lt;/div&gt;" style="text;html=1;align=right;verticalAlign=middle;resizable=0;points=[];autosize=1;strokeColor=none;fillColor=none;" vertex="1" parent="1">
          <mxGeometry x="-10" y="380" width="50" height="30" as="geometry" />
        </mxCell>
        <mxCell id="IQoudXfQe1JlrcyB3fGg-63" value="(1,1)" style="text;html=1;align=left;verticalAlign=middle;resizable=0;points=[];autosize=1;strokeColor=none;fillColor=none;" vertex="1" parent="1">
          <mxGeometry x="-540" y="330" width="50" height="30" as="geometry" />
        </mxCell>
        <mxCell id="IQoudXfQe1JlrcyB3fGg-64" value="&lt;div align=&quot;right&quot;&gt;(0,n)&lt;/div&gt;" style="text;html=1;align=right;verticalAlign=middle;resizable=0;points=[];autosize=1;strokeColor=none;fillColor=none;" vertex="1" parent="1">
          <mxGeometry x="-10" y="180" width="50" height="30" as="geometry" />
        </mxCell>
        <mxCell id="IQoudXfQe1JlrcyB3fGg-65" value="(1,1)" style="text;html=1;align=left;verticalAlign=middle;resizable=0;points=[];autosize=1;strokeColor=none;fillColor=none;" vertex="1" parent="1">
          <mxGeometry x="-540" y="400" width="50" height="30" as="geometry" />
        </mxCell>
        <mxCell id="IQoudXfQe1JlrcyB3fGg-66" value="(1,1)" style="text;html=1;align=left;verticalAlign=middle;resizable=0;points=[];autosize=1;strokeColor=none;fillColor=none;" vertex="1" parent="1">
          <mxGeometry x="660" y="240" width="50" height="30" as="geometry" />
        </mxCell>
        <mxCell id="IQoudXfQe1JlrcyB3fGg-68" value="salario" style="text;html=1;align=left;verticalAlign=middle;resizable=0;points=[];autosize=1;strokeColor=none;fillColor=none;" vertex="1" parent="1">
          <mxGeometry x="480" y="220" width="60" height="30" as="geometry" />
        </mxCell>
        <mxCell id="IQoudXfQe1JlrcyB3fGg-69" value="formacao" style="text;html=1;align=left;verticalAlign=middle;resizable=0;points=[];autosize=1;strokeColor=none;fillColor=none;" vertex="1" parent="1">
          <mxGeometry x="480" y="240" width="80" height="30" as="geometry" />
        </mxCell>
        <mxCell id="IQoudXfQe1JlrcyB3fGg-70" value="codTurma" style="text;html=1;align=left;verticalAlign=middle;resizable=0;points=[];autosize=1;strokeColor=none;fillColor=none;" vertex="1" parent="1">
          <mxGeometry x="120" y="400" width="80" height="30" as="geometry" />
        </mxCell>
        <mxCell id="IQoudXfQe1JlrcyB3fGg-71" value="sala" style="text;html=1;align=left;verticalAlign=middle;resizable=0;points=[];autosize=1;strokeColor=none;fillColor=none;" vertex="1" parent="1">
          <mxGeometry x="120" y="420" width="50" height="30" as="geometry" />
        </mxCell>
        <mxCell id="IQoudXfQe1JlrcyB3fGg-72" value="numAlunos" style="text;html=1;align=left;verticalAlign=middle;resizable=0;points=[];autosize=1;strokeColor=none;fillColor=none;" vertex="1" parent="1">
          <mxGeometry x="120" y="440" width="90" height="30" as="geometry" />
        </mxCell>
        <mxCell id="IQoudXfQe1JlrcyB3fGg-73" value="agenda" style="text;html=1;align=left;verticalAlign=middle;resizable=0;points=[];autosize=1;strokeColor=none;fillColor=none;" vertex="1" parent="1">
          <mxGeometry x="120" y="460" width="70" height="30" as="geometry" />
        </mxCell>
        <mxCell id="IQoudXfQe1JlrcyB3fGg-74" value="codDisciplina" style="text;html=1;align=left;verticalAlign=middle;resizable=0;points=[];autosize=1;strokeColor=none;fillColor=none;" vertex="1" parent="1">
          <mxGeometry x="-200" y="400" width="100" height="30" as="geometry" />
        </mxCell>
        <mxCell id="IQoudXfQe1JlrcyB3fGg-75" value="fase" style="text;html=1;align=left;verticalAlign=middle;resizable=0;points=[];autosize=1;strokeColor=none;fillColor=none;" vertex="1" parent="1">
          <mxGeometry x="-200" y="420" width="50" height="30" as="geometry" />
        </mxCell>
        <mxCell id="IQoudXfQe1JlrcyB3fGg-76" value="creditos" style="text;html=1;align=left;verticalAlign=middle;resizable=0;points=[];autosize=1;strokeColor=none;fillColor=none;" vertex="1" parent="1">
          <mxGeometry x="-200" y="440" width="70" height="30" as="geometry" />
        </mxCell>
        <mxCell id="IQoudXfQe1JlrcyB3fGg-77" value="codHistorico" style="text;html=1;align=left;verticalAlign=middle;resizable=0;points=[];autosize=1;strokeColor=none;fillColor=none;" vertex="1" parent="1">
          <mxGeometry x="-120" y="280" width="100" height="30" as="geometry" />
        </mxCell>
        <mxCell id="IQoudXfQe1JlrcyB3fGg-78" value="mediaGeral" style="text;html=1;align=left;verticalAlign=middle;resizable=0;points=[];autosize=1;strokeColor=none;fillColor=none;" vertex="1" parent="1">
          <mxGeometry x="-120" y="300" width="90" height="30" as="geometry" />
        </mxCell>
        <mxCell id="IQoudXfQe1JlrcyB3fGg-79" value="frequenciaGeral" style="text;html=1;align=left;verticalAlign=middle;resizable=0;points=[];autosize=1;strokeColor=none;fillColor=none;" vertex="1" parent="1">
          <mxGeometry x="-120" y="320" width="120" height="30" as="geometry" />
        </mxCell>
        <mxCell id="IQoudXfQe1JlrcyB3fGg-80" value="&lt;div align=&quot;right&quot;&gt;codCurso&lt;/div&gt;" style="text;html=1;align=right;verticalAlign=middle;resizable=0;points=[];autosize=1;strokeColor=none;fillColor=none;" vertex="1" parent="1">
          <mxGeometry x="-720" y="360" width="80" height="30" as="geometry" />
        </mxCell>
        <mxCell id="IQoudXfQe1JlrcyB3fGg-81" value="nome" style="text;html=1;align=left;verticalAlign=middle;resizable=0;points=[];autosize=1;strokeColor=none;fillColor=none;" vertex="1" parent="1">
          <mxGeometry x="-200" y="460" width="60" height="30" as="geometry" />
        </mxCell>
        <mxCell id="IQoudXfQe1JlrcyB3fGg-82" value="nome" style="text;html=1;align=right;verticalAlign=middle;resizable=0;points=[];autosize=1;strokeColor=none;fillColor=none;" vertex="1" parent="1">
          <mxGeometry x="-700" y="380" width="60" height="30" as="geometry" />
        </mxCell>
        <mxCell id="IQoudXfQe1JlrcyB3fGg-83" value="periodo" style="text;html=1;align=right;verticalAlign=middle;resizable=0;points=[];autosize=1;strokeColor=none;fillColor=none;" vertex="1" parent="1">
          <mxGeometry x="-710" y="400" width="70" height="30" as="geometry" />
        </mxCell>
        <mxCell id="IQoudXfQe1JlrcyB3fGg-84" value="creditoTotal" style="text;html=1;align=right;verticalAlign=middle;resizable=0;points=[];autosize=1;strokeColor=none;fillColor=none;" vertex="1" parent="1">
          <mxGeometry x="-730" y="420" width="90" height="30" as="geometry" />
        </mxCell>
        <mxCell id="IQoudXfQe1JlrcyB3fGg-85" value="salario" style="text;html=1;align=left;verticalAlign=middle;resizable=0;points=[];autosize=1;strokeColor=none;fillColor=none;" vertex="1" parent="1">
          <mxGeometry x="760" y="220" width="60" height="30" as="geometry" />
        </mxCell>
        <mxCell id="IQMPfHwv8TW2arMJD17B-5" style="edgeStyle=orthogonalEdgeStyle;rounded=0;orthogonalLoop=1;jettySize=auto;html=1;exitX=0;exitY=0.5;exitDx=0;exitDy=0;entryX=0.5;entryY=0;entryDx=0;entryDy=0;endArrow=none;endFill=0;" edge="1" parent="1" source="IQMPfHwv8TW2arMJD17B-1" target="IQoudXfQe1JlrcyB3fGg-1">
          <mxGeometry relative="1" as="geometry" />
        </mxCell>
        <mxCell id="IQMPfHwv8TW2arMJD17B-1" value="" style="triangle;whiteSpace=wrap;html=1;rotation=-90;" vertex="1" parent="1">
          <mxGeometry x="320" y="120" width="40" height="40" as="geometry" />
        </mxCell>
        <mxCell id="IQMPfHwv8TW2arMJD17B-7" style="edgeStyle=orthogonalEdgeStyle;rounded=0;orthogonalLoop=1;jettySize=auto;html=1;exitX=0;exitY=0.5;exitDx=0;exitDy=0;entryX=0.5;entryY=0;entryDx=0;entryDy=0;endArrow=none;endFill=0;" edge="1" parent="1" source="IQMPfHwv8TW2arMJD17B-2" target="IQoudXfQe1JlrcyB3fGg-2">
          <mxGeometry relative="1" as="geometry" />
        </mxCell>
        <mxCell id="IQMPfHwv8TW2arMJD17B-2" value="" style="triangle;whiteSpace=wrap;html=1;rotation=-90;" vertex="1" parent="1">
          <mxGeometry x="400" y="120" width="40" height="40" as="geometry" />
        </mxCell>
      </root>
    </mxGraphModel>
  </diagram>
</mxfile>
